<?xml version="1.0" standalone="no"?>
<!DOCTYPE svg PUBLIC "-//W3C//DTD SVG 20010904//EN"
 "http://www.w3.org/TR/2001/REC-SVG-20010904/DTD/svg10.dtd">
<svg version="1.0" xmlns="http://www.w3.org/2000/svg"
 width="134.000000pt" height="133.000000pt" viewBox="0 0 134.000000 133.000000"
 preserveAspectRatio="xMidYMid meet">
<metadata>
Created by potrace 1.16, written by Peter Selinger 2001-2019
</metadata>
<g transform="translate(0.000000,133.000000) scale(0.100000,-0.100000)"
fill="#000000" stroke="none">
<path d="M570 1273 c-226 -38 -432 -232 -485 -455 -19 -82 -19 -218 0 -293 47
-185 187 -349 355 -415 79 -31 90 -23 90 63 l0 72 -57 -3 c-72 -4 -113 20
-155 91 -15 26 -40 59 -55 72 -27 24 -27 24 -5 25 12 0 22 -5 22 -11 0 -19 44
-49 53 -36 4 7 5 0 1 -15 -5 -22 -3 -28 10 -28 9 0 16 -7 16 -16 0 -11 6 -15
20 -11 15 4 20 0 20 -14 0 -21 25 -26 34 -6 5 9 7 9 12 0 3 -7 12 -13 20 -13
8 0 14 6 14 13 0 8 3 8 9 -2 11 -17 45 -7 38 12 -2 6 7 32 20 56 13 24 22 45
21 46 -2 1 -34 10 -73 20 -59 16 -78 26 -121 69 -57 58 -74 105 -74 207 0 50
6 73 28 113 23 40 28 60 24 94 -2 23 -1 58 2 77 9 45 33 46 112 5 57 -31 57
-31 136 -19 60 10 96 10 153 1 74 -12 76 -11 134 18 81 42 98 40 111 -12 8
-27 9 -53 2 -78 -7 -31 -6 -41 9 -61 79 -100 46 -304 -59 -374 -21 -14 -67
-32 -104 -41 l-67 -17 20 -36 c15 -29 19 -56 19 -147 0 -137 7 -147 78 -120
170 62 318 228 367 411 20 73 22 223 5 296 -65 278 -315 472 -600 467 -41 0
-86 -3 -100 -5z"/>
</g>
</svg>
